<?xml version="1.0" encoding="UTF-8" standalone="no"?>
<!-- Created with Inkscape (http://www.inkscape.org/) -->

<svg
   xmlns:dc="http://purl.org/dc/elements/1.1/"
   xmlns:cc="http://creativecommons.org/ns#"
   xmlns:rdf="http://www.w3.org/1999/02/22-rdf-syntax-ns#"
   xmlns:svg="http://www.w3.org/2000/svg"
   xmlns="http://www.w3.org/2000/svg"
   xmlns:xlink="http://www.w3.org/1999/xlink"
   xmlns:sodipodi="http://sodipodi.sourceforge.net/DTD/sodipodi-0.dtd"
   xmlns:inkscape="http://www.inkscape.org/namespaces/inkscape"
   width="440"
   height="440"
   id="svg2"
   version="1.1"
   inkscape:version="0.48.2 r9819"
   sodipodi:docname="all-on-grid.svg"
   inkscape:export-filename="C:\Users\Stephan\Desktop\all-on-grid.png"
   inkscape:export-xdpi="90"
   inkscape:export-ydpi="90">
  <defs
     id="defs4">
    <linearGradient
       id="linearGradient3789-6">
      <stop
         style="stop-color:#0a75c2;stop-opacity:1;"
         offset="0"
         id="stop3791-0" />
      <stop
         style="stop-color:#064572;stop-opacity:1;"
         offset="1"
         id="stop3793-4" />
    </linearGradient>
    <linearGradient
       inkscape:collect="always"
       xlink:href="#linearGradient3789-6"
       id="linearGradient3776"
       x1="-10"
       y1="26.666666"
       x2="-10"
       y2="73.333336"
       gradientUnits="userSpaceOnUse"
       spreadMethod="reflect" />
    <linearGradient
       y2="80"
       x2="45"
       y1="10"
       x1="45"
       spreadMethod="reflect"
       gradientUnits="userSpaceOnUse"
       id="linearGradient3922"
       xlink:href="#linearGradient3789-6-4"
       inkscape:collect="always" />
    <linearGradient
       id="linearGradient3789-6-4">
      <stop
         id="stop3791-0-0"
         offset="0"
         style="stop-color:#0a75c2;stop-opacity:1;" />
      <stop
         id="stop3793-4-9"
         offset="1"
         style="stop-color:#064572;stop-opacity:1;" />
    </linearGradient>
    <linearGradient
       gradientTransform="matrix(-1,0,0,1,90,0)"
       y2="80"
       x2="45"
       y1="10"
       x1="45"
       spreadMethod="reflect"
       gradientUnits="userSpaceOnUse"
       id="linearGradient3036"
       xlink:href="#linearGradient3789-6-5"
       inkscape:collect="always" />
    <linearGradient
       id="linearGradient3789-6-5">
      <stop
         id="stop3791-0-1"
         offset="0"
         style="stop-color:#0a75c2;stop-opacity:1;" />
      <stop
         id="stop3793-4-7"
         offset="1"
         style="stop-color:#064572;stop-opacity:1;" />
    </linearGradient>
    <linearGradient
       inkscape:collect="always"
       xlink:href="#linearGradient3789-6-6"
       id="linearGradient3878"
       gradientUnits="userSpaceOnUse"
       spreadMethod="reflect"
       x1="45"
       y1="10"
       x2="45"
       y2="80" />
    <linearGradient
       id="linearGradient3789-6-6">
      <stop
         id="stop3791-0-8"
         offset="0"
         style="stop-color:#0a75c2;stop-opacity:1;" />
      <stop
         id="stop3793-4-5"
         offset="1"
         style="stop-color:#064572;stop-opacity:1;" />
    </linearGradient>
    <linearGradient
       spreadMethod="reflect"
       gradientUnits="userSpaceOnUse"
       y2="58.333332"
       x2="30"
       y1="11.666667"
       x1="30"
       id="linearGradient3845"
       xlink:href="#linearGradient3789"
       inkscape:collect="always" />
    <linearGradient
       id="linearGradient3789">
      <stop
         id="stop3791"
         offset="0"
         style="stop-color:#0a75c2;stop-opacity:1;" />
      <stop
         id="stop3793"
         offset="1"
         style="stop-color:#064572;stop-opacity:1;" />
    </linearGradient>
    <linearGradient
       gradientTransform="matrix(0,1,-1,0,90,0)"
       y2="50"
       x2="80"
       y1="50"
       x1="10"
       spreadMethod="reflect"
       gradientUnits="userSpaceOnUse"
       id="linearGradient3911"
       xlink:href="#linearGradient3789-6-9"
       inkscape:collect="always" />
    <linearGradient
       id="linearGradient3789-6-9">
      <stop
         id="stop3791-0-5"
         offset="0"
         style="stop-color:#0a75c2;stop-opacity:1;" />
      <stop
         id="stop3793-4-4"
         offset="1"
         style="stop-color:#064572;stop-opacity:1;" />
    </linearGradient>
    <linearGradient
       y2="80"
       x2="45"
       y1="10"
       x1="45"
       spreadMethod="reflect"
       gradientUnits="userSpaceOnUse"
       id="linearGradient3922-6"
       xlink:href="#linearGradient3789-6-0"
       inkscape:collect="always" />
    <linearGradient
       id="linearGradient3789-6-0">
      <stop
         id="stop3791-0-9"
         offset="0"
         style="stop-color:#0a75c2;stop-opacity:1;" />
      <stop
         id="stop3793-4-00"
         offset="1"
         style="stop-color:#064572;stop-opacity:1;" />
    </linearGradient>
    <linearGradient
       gradientTransform="matrix(-1,0,0,1,90,0)"
       y2="80"
       x2="45"
       y1="10"
       x1="45"
       spreadMethod="reflect"
       gradientUnits="userSpaceOnUse"
       id="linearGradient3925"
       xlink:href="#linearGradient3789-6-06"
       inkscape:collect="always" />
    <linearGradient
       id="linearGradient3789-6-06">
      <stop
         id="stop3791-0-61"
         offset="0"
         style="stop-color:#0a75c2;stop-opacity:1;" />
      <stop
         id="stop3793-4-84"
         offset="1"
         style="stop-color:#064572;stop-opacity:1;" />
    </linearGradient>
    <linearGradient
       spreadMethod="reflect"
       gradientUnits="userSpaceOnUse"
       y2="80"
       x2="45"
       y1="10"
       x1="45"
       id="linearGradient3835"
       xlink:href="#linearGradient3789-1"
       inkscape:collect="always" />
    <linearGradient
       id="linearGradient3789-1">
      <stop
         id="stop3791-2"
         offset="0"
         style="stop-color:#0a75c2;stop-opacity:1;" />
      <stop
         id="stop3793-0"
         offset="1"
         style="stop-color:#064572;stop-opacity:1;" />
    </linearGradient>
    <linearGradient
       id="linearGradient3789-6-3-7">
      <stop
         id="stop3791-0-59-7"
         offset="0"
         style="stop-color:#0a75c2;stop-opacity:1;" />
      <stop
         id="stop3793-4-840-7"
         offset="1"
         style="stop-color:#064572;stop-opacity:1;" />
    </linearGradient>
    <linearGradient
       y2="10"
       x2="40"
       y1="80"
       x1="40"
       spreadMethod="reflect"
       gradientTransform="matrix(-1,0,0,-1,90,90)"
       gradientUnits="userSpaceOnUse"
       id="linearGradient3380"
       xlink:href="#linearGradient3789-6-3-7"
       inkscape:collect="always" />
    <linearGradient
       id="linearGradient3789-6-09-5">
      <stop
         id="stop3791-0-7-9"
         offset="0"
         style="stop-color:#0a75c2;stop-opacity:1;" />
      <stop
         id="stop3793-4-3-9"
         offset="1"
         style="stop-color:#064572;stop-opacity:1;" />
    </linearGradient>
    <linearGradient
       y2="10"
       x2="40"
       y1="80"
       x1="40"
       spreadMethod="reflect"
       gradientTransform="matrix(1,0,0,-1,0,90)"
       gradientUnits="userSpaceOnUse"
       id="linearGradient3417"
       xlink:href="#linearGradient3789-6-09-5"
       inkscape:collect="always" />
    <linearGradient
       id="linearGradient3789-6-8-1">
      <stop
         id="stop3791-0-6-8"
         offset="0"
         style="stop-color:#0a75c2;stop-opacity:1;" />
      <stop
         id="stop3793-4-50-2"
         offset="1"
         style="stop-color:#064572;stop-opacity:1;" />
    </linearGradient>
    <linearGradient
       y2="50"
       x2="80"
       y1="50"
       x1="10"
       spreadMethod="reflect"
       gradientTransform="matrix(0,1,1,0,0,0)"
       gradientUnits="userSpaceOnUse"
       id="linearGradient3472"
       xlink:href="#linearGradient3789-6-8-1"
       inkscape:collect="always" />
    <linearGradient
       id="linearGradient3789-6-1-3">
      <stop
         id="stop3791-0-3-8"
         offset="0"
         style="stop-color:#0a75c2;stop-opacity:1;" />
      <stop
         id="stop3793-4-8-0"
         offset="1"
         style="stop-color:#064572;stop-opacity:1;" />
    </linearGradient>
    <linearGradient
       y2="10"
       x2="45"
       y1="80"
       x1="45"
       spreadMethod="reflect"
       gradientTransform="matrix(1,0,0,-1,0,90)"
       gradientUnits="userSpaceOnUse"
       id="linearGradient3509"
       xlink:href="#linearGradient3789-6-1-3"
       inkscape:collect="always" />
    <linearGradient
       y2="80"
       x2="45"
       y1="10"
       x1="45"
       spreadMethod="reflect"
       gradientUnits="userSpaceOnUse"
       id="linearGradient3019"
       xlink:href="#linearGradient3789-5"
       inkscape:collect="always" />
    <linearGradient
       id="linearGradient3789-5">
      <stop
         id="stop3791-09"
         offset="0"
         style="stop-color:#0a75c2;stop-opacity:1;" />
      <stop
         id="stop3793-47"
         offset="1"
         style="stop-color:#064572;stop-opacity:1;" />
    </linearGradient>
    <linearGradient
       gradientTransform="matrix(-1,0,0,1,90,0)"
       y2="80"
       x2="45"
       y1="10"
       x1="45"
       spreadMethod="reflect"
       gradientUnits="userSpaceOnUse"
       id="linearGradient3019-9"
       xlink:href="#linearGradient3789-4"
       inkscape:collect="always" />
    <linearGradient
       id="linearGradient3789-4">
      <stop
         id="stop3791-1"
         offset="0"
         style="stop-color:#0a75c2;stop-opacity:1;" />
      <stop
         id="stop3793-43"
         offset="1"
         style="stop-color:#064572;stop-opacity:1;" />
    </linearGradient>
    <linearGradient
       gradientTransform="matrix(-1,0,0,-1,90,90)"
       y2="10"
       x2="50"
       y1="80"
       x1="50"
       spreadMethod="reflect"
       gradientUnits="userSpaceOnUse"
       id="linearGradient3019-4"
       xlink:href="#linearGradient3789-68"
       inkscape:collect="always" />
    <linearGradient
       id="linearGradient3789-68">
      <stop
         id="stop3791-3"
         offset="0"
         style="stop-color:#0a75c2;stop-opacity:1;" />
      <stop
         id="stop3793-48"
         offset="1"
         style="stop-color:#064572;stop-opacity:1;" />
    </linearGradient>
    <linearGradient
       gradientTransform="matrix(1,0,0,-1,0,90)"
       y2="10"
       x2="50"
       y1="80"
       x1="50"
       spreadMethod="reflect"
       gradientUnits="userSpaceOnUse"
       id="linearGradient3019-0"
       xlink:href="#linearGradient3789-3"
       inkscape:collect="always" />
    <linearGradient
       id="linearGradient3789-3">
      <stop
         id="stop3791-7"
         offset="0"
         style="stop-color:#0a75c2;stop-opacity:1;" />
      <stop
         id="stop3793-438"
         offset="1"
         style="stop-color:#064572;stop-opacity:1;" />
    </linearGradient>
    <filter
       inkscape:collect="always"
       id="filter4483">
      <feGaussianBlur
         inkscape:collect="always"
         stdDeviation="3.335"
         id="feGaussianBlur4485" />
    </filter>
  </defs>
  <sodipodi:namedview
     id="base"
     pagecolor="#ffffff"
     bordercolor="#666666"
     borderopacity="1.0"
     inkscape:pageopacity="1"
     inkscape:pageshadow="2"
     inkscape:zoom="0.99999999"
     inkscape:cx="94.118537"
     inkscape:cy="236.17985"
     inkscape:document-units="px"
     inkscape:current-layer="layer2"
     showgrid="true"
     inkscape:window-width="1920"
     inkscape:window-height="1148"
     inkscape:window-x="-8"
     inkscape:window-y="-8"
     inkscape:window-maximized="1"
     inkscape:snap-bbox="true"
     inkscape:snap-global="true">
    <inkscape:grid
       type="xygrid"
       id="grid2985"
       empspacing="5"
       visible="false"
       enabled="true"
       snapvisiblegridlinesonly="true" />
  </sodipodi:namedview>
  <metadata
     id="metadata7">
    <rdf:RDF>
      <cc:Work
         rdf:about="">
        <dc:format>image/svg+xml</dc:format>
        <dc:type
           rdf:resource="http://purl.org/dc/dcmitype/StillImage" />
        <dc:title></dc:title>
      </cc:Work>
    </rdf:RDF>
  </metadata>
  <g
     inkscape:groupmode="layer"
     id="layer2"
     inkscape:label="Ebene"
     style="display:inline"
     transform="translate(0,350)">
    <path
       sodipodi:type="arc"
       style="fill:url(#linearGradient3776);fill-opacity:1;stroke:none"
       id="path3000"
       sodipodi:cx="-10"
       sodipodi:cy="50"
       sodipodi:rx="30"
       sodipodi:ry="30"
       d="M 20,50 C 20,66.568542 6.5685425,80 -10,80 -26.568542,80 -40,66.568542 -40,50 -40,33.431458 -26.568542,20 -10,20 6.5685425,20 20,33.431458 20,50 z"
       transform="matrix(1.5,0,0,1.5,76,-46)" />
    <g
       style="display:inline"
       inkscape:label="Ebene"
       id="layer2-2"
       transform="translate(334,-16)">
      <path
         id="rect3059"
         d="M 45,0 C 20.147186,0 0,20.147186 0,45 L 0,87.6875 C 0,88.973006 1.026994,90 2.3125,90 L 45,90 c 0.77665,0 1.545511,-0.02362 2.3125,-0.0625 C 71.089144,88.732259 90,69.076164 90,45 L 90,2.3125 C 90,1.026994 88.973006,0 87.6875,0 L 45,0 z"
         style="fill:url(#linearGradient3922);fill-opacity:1;stroke:none;display:inline"
         inkscape:connector-curvature="0" />
    </g>
    <g
       style="display:inline"
       inkscape:label="Ebene"
       id="layer2-23"
       transform="translate(228,-16)">
      <path
         inkscape:connector-curvature="0"
         id="rect3059-2"
         d="m 45,0 c 24.852814,0 45,20.147186 45,45 l 0,42.6875 C 90,88.973006 88.973006,90 87.6875,90 L 45,90 C 44.22335,90 43.454489,89.976379 42.6875,89.9375 18.910856,88.732259 0,69.076164 0,45 L 0,2.3125 C 0,1.026994 1.026994,0 2.3125,0 L 45,0 z"
         style="fill:url(#linearGradient3036);fill-opacity:1;stroke:none;display:inline" />
    </g>
    <g
       style="display:inline"
       inkscape:label="Ebene"
       id="layer2-8"
       transform="translate(122,-228)">
      <path
         id="rect3059-9"
         d="M 0,45 0,87.6875 C 0,88.973006 1.026994,90 2.3125,90 l 85.375,0 C 88.973006,90 90,88.973006 90,87.6875 L 90,45 0,45 z"
         style="fill:url(#linearGradient3878);fill-opacity:1;stroke:none;display:inline"
         inkscape:connector-curvature="0" />
      <path
         transform="matrix(1.5,0,0,1.5,0,-7.5)"
         d="M 60,35 C 60,51.568542 46.568542,65 30,65 13.431458,65 0,51.568542 0,35 0,18.431458 13.431458,5 30,5 46.568542,5 60,18.431458 60,35 z"
         sodipodi:ry="30"
         sodipodi:rx="30"
         sodipodi:cy="35"
         sodipodi:cx="30"
         id="path3837"
         style="fill:url(#linearGradient3845);fill-opacity:1;stroke:none"
         sodipodi:type="arc" />
    </g>
    <g
       style="display:inline"
       inkscape:label="Ebene"
       id="layer2-3"
       transform="translate(16,-228)">
      <path
         inkscape:connector-curvature="0"
         id="rect3059-3"
         d="M 90,45 C 90,20.147186 69.852814,0 45,0 L 2.3125,0 C 1.026994,0 0,1.026994 0,2.3125 L 0,45 0,87.6875 C 0,88.973006 1.026994,90 2.3125,90 L 45,90 C 69.852814,90 90,69.852814 90,45 z"
         style="fill:url(#linearGradient3911);fill-opacity:1;stroke:none;display:inline" />
    </g>
    <g
       style="display:inline"
       inkscape:label="Ebene"
       id="layer2-9"
       transform="translate(122,-122)">
      <path
         id="rect3059-34"
         d="M 45,0 C 20.147186,0 0,20.147186 0,45 L 0,87.6875 C 0,88.973006 1.026994,90 2.3125,90 L 45,90 C 69.852814,90 90,69.852814 90,45 90,20.147186 69.852814,0 45,0 z"
         style="fill:url(#linearGradient3922-6);fill-opacity:1;stroke:none;display:inline"
         inkscape:connector-curvature="0" />
    </g>
    <g
       style="display:inline"
       inkscape:label="Ebene"
       id="layer2-78"
       transform="translate(16,-122)">
      <path
         inkscape:connector-curvature="0"
         id="rect3059-82"
         d="m 45,0 c 24.852814,0 45,20.147186 45,45 l 0,42.6875 C 90,88.973006 88.973006,90 87.6875,90 L 45,90 C 20.147186,90 0,69.852814 0,45 0,20.147186 20.147186,0 45,0 z"
         style="fill:url(#linearGradient3925);fill-opacity:1;stroke:none;display:inline" />
    </g>
    <g
       style="display:inline"
       inkscape:label="Ebene"
       id="layer2-60"
       transform="translate(122,-16)">
      <rect
         ry="2.3204079"
         y="0"
         x="0"
         height="90"
         width="90"
         id="rect3059-7"
         style="fill:url(#linearGradient3835);fill-opacity:1;stroke:none" />
    </g>
    <g
       style="display:inline"
       inkscape:label="Ebene"
       id="layer2-1-7"
       transform="translate(228,-122)">
      <path
         inkscape:connector-curvature="0"
         id="rect3059-5-3"
         d="M 45,90 C 69.852814,90 90,69.852814 90,45 L 90,2.3125 C 90,1.026994 88.973006,0 87.6875,0 L 45,0 C 20.147186,0 0,20.147186 0,45 0,69.852814 20.147186,90 45,90 z"
         style="fill:url(#linearGradient3380);fill-opacity:1;stroke:none;display:inline" />
    </g>
    <g
       style="display:inline"
       inkscape:label="Ebene"
       id="layer2-6"
       transform="translate(334,-122)">
      <path
         inkscape:connector-curvature="0"
         id="rect3059-57"
         d="M 45,90 C 20.147186,90 0,69.852814 0,45 L 0,2.3125 C 0,1.026994 1.026994,0 2.3125,0 L 45,0 C 69.852814,0 90,20.147186 90,45 90,69.852814 69.852814,90 45,90 z"
         style="fill:url(#linearGradient3417);fill-opacity:1;stroke:none;display:inline" />
    </g>
    <g
       style="display:inline"
       inkscape:label="Ebene"
       id="layer2-24-6"
       transform="translate(334,-223)">
      <path
         inkscape:connector-curvature="0"
         id="rect3059-8-6"
         d="M 0,45 C 0,20.147186 20.147186,0 45,0 L 87.6875,0 C 88.973006,0 90,1.026994 90,2.3125 L 90,45 90,87.6875 C 90,88.973006 88.973006,90 87.6875,90 L 45,90 C 20.147186,90 0,69.852814 0,45 z"
         style="fill:url(#linearGradient3472);fill-opacity:1;stroke:none;display:inline" />
    </g>
    <g
       style="display:inline"
       inkscape:label="Ebene"
       id="layer2-7"
       transform="translate(228,-223)">
      <path
         inkscape:connector-curvature="0"
         id="rect3059-93"
         d="M 45,90 C 20.147186,90 0,69.852814 0,45 L 0,2.3125 C 0,1.026994 1.026994,0 2.3125,0 L 45,0 87.6875,0 C 88.973006,0 90,1.026994 90,2.3125 L 90,45 C 90,69.852814 69.852814,90 45,90 z"
         style="fill:url(#linearGradient3509);fill-opacity:1;stroke:none;display:inline" />
    </g>
    <g
       style="display:inline"
       inkscape:label="Ebene"
       id="layer2-61"
       transform="translate(228,-334)">
      <path
         id="rect3059-8"
         d="M 45,0 C 20.14719,0 0,20.147186 0,45 L 0,87.6875 C 0,88.973006 1.026994,90 2.3125,90 L 45,90 87.6875,90 C 88.973006,90 90,88.973006 90,87.6875 L 90,2.3125 C 90,1.026994 88.973006,0 87.6875,0 L 45,0 z"
         style="fill:url(#linearGradient3019);fill-opacity:1;stroke:none"
         inkscape:connector-curvature="0" />
    </g>
    <g
       style="display:inline"
       inkscape:label="Ebene"
       id="layer2-87"
       transform="translate(334,-334)">
      <path
         inkscape:connector-curvature="0"
         id="rect3059-78"
         d="m 45,0 c 24.85281,0 45,20.147186 45,45 l 0,42.6875 C 90,88.973006 88.973006,90 87.6875,90 L 45,90 2.3125,90 C 1.026994,90 0,88.973006 0,87.6875 L 0,2.3125 C 0,1.026994 1.026994,0 2.3125,0 L 45,0 z"
         style="fill:url(#linearGradient3019-9);fill-opacity:1;stroke:none" />
    </g>
    <g
       style="display:inline"
       inkscape:label="Ebene"
       id="layer2-5"
       transform="translate(122,-334)">
      <path
         inkscape:connector-curvature="0"
         id="rect3059-5"
         d="M 45,90 C 69.85281,90 90,69.852814 90,45 L 90,2.3125 C 90,1.026994 88.973006,0 87.6875,0 L 45,0 2.3125,0 C 1.026994,0 0,1.026994 0,2.3125 l 0,85.375 C 0,88.973006 1.026994,90 2.3125,90 L 45,90 z"
         style="fill:url(#linearGradient3019-4);fill-opacity:1;stroke:none" />
    </g>
    <g
       style="display:inline"
       inkscape:label="Ebene"
       id="layer2-68"
       transform="translate(16,-334)">
      <path
         inkscape:connector-curvature="0"
         id="rect3059-1"
         d="M 45,90 C 20.14719,90 0,69.852814 0,45 L 0,2.3125 C 0,1.026994 1.026994,0 2.3125,0 L 45,0 87.6875,0 C 88.973006,0 90,1.026994 90,2.3125 l 0,85.375 C 90,88.973006 88.973006,90 87.6875,90 L 45,90 z"
         style="fill:url(#linearGradient3019-0);fill-opacity:1;stroke:none" />
    </g>
  </g>
</svg>
